<?xml version="1.0" standalone="no"?>
<!DOCTYPE svg PUBLIC "-//W3C//DTD SVG 20010904//EN"
 "http://www.w3.org/TR/2001/REC-SVG-20010904/DTD/svg10.dtd">
<svg version="1.0" xmlns="http://www.w3.org/2000/svg"
 width="512.000000pt" height="512.000000pt" viewBox="0 0 512.000000 512.000000"
 preserveAspectRatio="xMidYMid meet">
<metadata>
Created by potrace 1.14, written by Peter Selinger 2001-2017
</metadata>
<g transform="translate(0.000000,512.000000) scale(0.100000,-0.100000)"
fill="#000000" stroke="none">
<path d="M2315 5109 c-720 -74 -1370 -439 -1799 -1009 -505 -670 -649 -1543
-386 -2340 127 -387 332 -720 621 -1009 405 -405 902 -649 1494 -733 118 -17
512 -17 630 0 592 84 1088 328 1494 733 405 406 649 902 733 1494 17 118 17
512 0 630 -84 592 -328 1088 -733 1494 -396 395 -881 639 -1449 726 -126 19
-477 28 -605 14z m878 -1156 c428 -649 603 -1339 486 -1917 -119 -590 -462
-902 -1094 -997 -101 -16 -497 -17 -605 -2 l-65 8 2 102 c4 173 56 447 125
655 124 376 347 686 622 869 49 32 84 59 76 59 -27 0 -216 -82 -292 -128 -330
-195 -562 -531 -697 -1003 -34 -119 -67 -276 -77 -367 -3 -34 -10 -62 -14 -62
-10 0 -123 221 -160 314 -181 458 -101 897 220 1199 140 132 264 207 537 322
473 199 733 421 830 709 23 68 27 98 27 191 1 61 -2 125 -6 143 -4 17 -6 32
-4 32 3 0 42 -57 89 -127z m-1327 -134 c75 -45 87 -161 22 -225 -57 -57 -152
-59 -207 -3 -79 78 -50 208 54 244 46 15 87 10 131 -16z m874 -94 c64 -61 61
-145 -5 -204 -29 -25 -45 -31 -82 -31 -133 0 -190 147 -91 236 32 30 46 34
101 30 36 -2 55 -10 77 -31z m-462 -337 c28 -28 7 -78 -33 -78 -27 0 -45 18
-45 45 0 27 18 45 45 45 12 0 26 -5 33 -12z m-403 -223 c29 -28 31 -42 9 -73
-18 -26 -60 -29 -86 -5 -38 34 -11 97 45 102 4 1 19 -10 32 -24z m-243 -63
c10 -9 20 -31 24 -49 5 -27 1 -37 -24 -63 -39 -38 -83 -40 -117 -5 -57 56 -3
155 75 139 14 -3 33 -13 42 -22z"/>
</g>
</svg>
